<svg xmlns="http://www.w3.org/2000/svg" width="192" height="192" viewBox="0 0 192 192">
  <rect width="192" height="192" rx="40" fill="#7c3aed"/>
  <path fill="white" d="M103.78 179.75c-2.66 3.38-8.08 1.5-8.08-2.79V135.75a9.04 9.04 0 0 0-9.05-9.05H41.15c-3.68 0-5.82-4.16-3.68-7.15L67.42 77.6c4.28-5.99 0-14.31-7.37-14.31H4.95c-3.68 0-5.82-4.16-3.68-7.15L37.04 1.9A3.8 3.8 0 0 1 40.72 0h115.57c3.68 0 5.82 4.16 3.68 7.15l-29.92 41.95c-4.28 5.99 0 14.31 7.37 14.31h45.51c3.77 0 5.89 4.35 3.56 7.32l-82.71 109z"/>
</svg>
