<svg xmlns="http://www.w3.org/2000/svg" width="512" height="512" viewBox="0 0 512 512">
  <rect width="512" height="512" rx="100" fill="#7c3aed"/>
  <path fill="white" d="M277.08 479.33c-2.66 3.38-8.08 1.5-8.08-2.79V361.33a9.04 9.04 0 0 0-9.05-9.05H115.45c-3.68 0-5.82-4.16-3.68-7.15l59.85-83.8c4.28-5.99 0-14.31-7.37-14.31H19.25c-3.68 0-5.82-4.16-3.68-7.15L111.04 5.07A3.8 3.8 0 0 1 114.72 3.33h283.57c3.68 0 5.82 4.16 3.68 7.15l-73.42 102.85c-4.28 5.99 0 14.31 7.37 14.31h111.51c3.77 0 5.89 4.35 3.56 7.32l-173.91 344.4z"/>
</svg>
